HIERARCHY
ROOT hip
{
  OFFSET 0 0 0
  CHANNELS 6 Xposition Yposition Zposition Zrotation Yrotation Xrotation
  JOINT abdomen
  {
    OFFSET 0 20.6881 -0.73152
    CHANNELS 3 Zrotation Xrotation Yrotation
    JOINT chest
    {
      OFFSET 0 11.7043 -0.48768
      CHANNELS 3 Zrotation Xrotation Yrotation
      JOINT neck
      {
        OFFSET 0 22.1894 -2.19456
        CHANNELS 3 Zrotation Xrotation Yrotation
        JOINT head
        {
          OFFSET -0.24384 7.07133 1.2192
          CHANNELS 3 Zrotation Xrotation Yrotation
          JOINT leftEye
          {
            OFFSET 4.14528 8.04674 8.04672
            CHANNELS 3 Zrotation Xrotation Yrotation
            End Site
            {
              OFFSET 1 0 0
            }
          }
          JOINT rightEye
          {
            OFFSET -3.6576 8.04674 8.04672
            CHANNELS 3 Zrotation Xrotation Yrotation
            End Site
            {
              OFFSET 1 0 0
            }
          }
        }
      }
      JOINT rCollar
      {
        OFFSET -2.68224 19.2634 -4.8768
        CHANNELS 3 Zrotation Xrotation Yrotation
        JOINT rShldr
        {
          OFFSET -8.77824 -1.95073 1.46304
          CHANNELS 3 Zrotation Xrotation Yrotation
          JOINT rForeArm
          {
            OFFSET -28.1742 -1.7115 0.48768
            CHANNELS 3 Zrotation Xrotation Yrotation
            JOINT rHand
            {
              OFFSET -22.5879 0.773209 7.07136
              CHANNELS 3 Zrotation Xrotation Yrotation
              JOINT rThumb1
              {
                OFFSET -1.2192 -0.487915 3.41376
                CHANNELS 3 Zrotation Xrotation Yrotation
                JOINT rThumb2
                {
                  OFFSET -3.37035 -0.52449 3.41376
                  CHANNELS 3 Zrotation Xrotation Yrotation
                  End Site
                  {
                    OFFSET -1.78271 -1.18214 1.43049
                  }
                }
              }
              JOINT rIndex1
              {
                OFFSET -7.75947 0.938293 5.60832
                CHANNELS 3 Zrotation Xrotation Yrotation
                JOINT rIndex2
                {
                  OFFSET -2.54057 -0.884171 1.56538
                  CHANNELS 3 Zrotation Xrotation Yrotation
                  End Site
                  {
                    OFFSET -1.62519 -0.234802 1.16502
                  }
                }
              }
              JOINT rMid1
              {
                OFFSET -8.24714 1.18213 3.41376
                CHANNELS 3 Zrotation Xrotation Yrotation
                JOINT rMid2
                {
                  OFFSET -3.10165 -0.590103 1.0647
                  CHANNELS 3 Zrotation Xrotation Yrotation
                  End Site
                  {
                    OFFSET -2.48547 -0.328903 0.83742
                  }
                }
              }
              JOINT rRing1
              {
                OFFSET -8.82822 0.546677 1.51678
                CHANNELS 3 Zrotation Xrotation Yrotation
                JOINT rRing2
                {
                  OFFSET -2.60934 -0.819778 -0.0198488
                  CHANNELS 3 Zrotation Xrotation Yrotation
                  End Site
                  {
                    OFFSET -2.33842 -0.294052 0.168128
                  }
                }
              }
              JOINT rPinky1
              {
                OFFSET -8.27202 -0.0477905 -0.4584
                CHANNELS 3 Zrotation Xrotation Yrotation
                JOINT rPinky2
                {
                  OFFSET -1.82734 -0.647385 -0.700984
                  CHANNELS 3 Zrotation Xrotation Yrotation
                  End Site
                  {
                    OFFSET -1.69225 -0.51767 -0.607171
                  }
                }
              }
            }
          }
        }
      }
      JOINT lCollar
      {
        OFFSET 2.68224 19.2634 -4.8768
        CHANNELS 3 Zrotation Xrotation Yrotation
        JOINT lShldr
        {
          OFFSET 8.77824 -1.95073 1.46304
          CHANNELS 3 Zrotation Xrotation Yrotation
          JOINT lForeArm
          {
            OFFSET 28.1742 -1.7115 0.48768
            CHANNELS 3 Zrotation Xrotation Yrotation
            JOINT lHand
            {
              OFFSET 22.5879 0.773209 7.07136
              CHANNELS 3 Zrotation Xrotation Yrotation
              JOINT lThumb1
              {
                OFFSET 1.2192 -0.487915 3.41376
                CHANNELS 3 Zrotation Xrotation Yrotation
                JOINT lThumb2
                {
                  OFFSET 3.37035 -0.52449 3.41376
                  CHANNELS 3 Zrotation Xrotation Yrotation
                  End Site
                  {
                    OFFSET 1.78271 -1.18214 1.43049
                  }
                }
              }
              JOINT lIndex1
              {
                OFFSET 7.75947 0.938293 5.60832
                CHANNELS 3 Zrotation Xrotation Yrotation
                JOINT lIndex2
                {
                  OFFSET 2.54057 -0.884171 1.56538
                  CHANNELS 3 Zrotation Xrotation Yrotation
                  End Site
                  {
                    OFFSET 1.62519 -0.234802 1.16502
                  }
                }
              }
              JOINT lMid1
              {
                OFFSET 8.24714 1.18213 3.41376
                CHANNELS 3 Zrotation Xrotation Yrotation
                JOINT lMid2
                {
                  OFFSET 3.10165 -0.590103 1.0647
                  CHANNELS 3 Zrotation Xrotation Yrotation
                  End Site
                  {
                    OFFSET 2.48547 -0.328903 0.83742
                  }
                }
              }
              JOINT lRing1
              {
                OFFSET 8.82822 0.546677 1.51678
                CHANNELS 3 Zrotation Xrotation Yrotation
                JOINT lRing2
                {
                  OFFSET 2.60934 -0.819778 -0.0198488
                  CHANNELS 3 Zrotation Xrotation Yrotation
                  End Site
                  {
                    OFFSET 2.33842 -0.294052 0.168128
                  }
                }
              }
              JOINT lPinky1
              {
                OFFSET 8.27202 -0.0477905 -0.4584
                CHANNELS 3 Zrotation Xrotation Yrotation
                JOINT lPinky2
                {
                  OFFSET 1.82734 -0.647385 -0.700984
                  CHANNELS 3 Zrotation Xrotation Yrotation
                  End Site
                  {
                    OFFSET 1.69225 -0.51767 -0.607171
                  }
                }
              }
            }
          }
        }
      }
    }
  }
  JOINT rButtock
  {
    OFFSET -8.77824 4.35084 1.2192
    CHANNELS 3 Zrotation Xrotation Yrotation
    JOINT rThigh
    {
      OFFSET 0 -1.70687 -2.19456
      CHANNELS 3 Zrotation Xrotation Yrotation
      JOINT rShin
      {
        OFFSET 0 -36.8199 0.73152
        CHANNELS 3 Zrotation Xrotation Yrotation
        JOINT rFoot
        {
          OFFSET 0.73152 -45.1104 -5.12064
          CHANNELS 3 Zrotation Xrotation Yrotation
          End Site
          {
            OFFSET -1.1221 -3.69964 12.103
          }
        }
      }
    }
  }
  JOINT lButtock
  {
    OFFSET 8.77824 4.35084 1.2192
    CHANNELS 3 Zrotation Xrotation Yrotation
    JOINT lThigh
    {
      OFFSET 0 -1.70687 -2.19456
      CHANNELS 3 Zrotation Xrotation Yrotation
      JOINT lShin
      {
        OFFSET 0 -36.8199 0.73152
        CHANNELS 3 Zrotation Xrotation Yrotation
        JOINT lFoot
        {
          OFFSET -0.73152 -45.1104 -5.12064
          CHANNELS 3 Zrotation Xrotation Yrotation
          End Site
          {
            OFFSET 1.1221 -3.69964 12.103
          }
        }
      }
    }
  }
}
MOTION
Frames:	4
Frame Time:	0.00833333
252.499 58.8333 105.321 -0.0 0.0 -0.0 0.0 0.0 0.0 -0.0 -0.0 0.0 -7.608028 13.134247 -97.362004 12.070264 9.21646 97.262646 0.0 0.0 0.0 0.0 0.0 0.0 3.268835 -26.755826 -5.241683 -176.404973 -5.170647 173.257165 126.254136 68.4528 -139.970266 -125.492143 71.628932 104.45188 -121.36458 30.329582 71.957921 -29.108542 -16.191968 29.355054 5.921393 -10.174578 -2.968574 1.415669 -0.153463 1.886285 -175.932641 -50.680399 144.035247 14.437381 -24.285055 1.182843 -0.000142 -0.018533 -0.005823 -158.987762 43.40689 163.329398 -146.226238 15.470244 -142.747894 4.159797 -1.439527 -2.537489 150.168677 21.535282 -155.275413 -20.617878 1.866533 -11.401519 -176.535262 7.308677 -179.020819 11.806161 34.163582 -2.426498 178.927535 -16.453687 -89.421826 -179.573378 -16.837063 -98.714388 26.599783 30.073055 -19.414608 176.11216 -20.767299 -116.88852 8.41658 20.880424 -5.645309 165.655707 -3.256769 -144.341676 73.163647 -72.142466 90.198134 -21.395144 -43.153131 -2.677088 -1.134951 3.04054 -1.043633 -12.877282 44.400196 -8.544475 0.0 -0.0 -0.0 -0.0 0.0 -0.0 7.051593 4.103085 76.605942 -82.15108 66.997553 9.765586 0.0 -0.0 -0.0 -0.0 0.0 -0.0 -7.051593 4.103085 -76.605942 4.711345 -1.574469 78.901466
251.302 59.31960000000001 104.952 -0.0 0.0 -0.0 -0.0 -4.771896 -180.0 -0.0 -4.771896 180.0 10.806472 5.002779 72.200812 -8.077378 8.762195 -72.054437 0.0 -0.0 -0.0 0.0 -0.0 -0.0 3.268835 -26.755826 -5.241683 -175.918906 -0.457875 172.993128 -177.227472 -13.88606 178.666235 -4.058364 12.907937 0.015531 3.523287 -3.50505 -0.435699 12.964443 -22.299859 -12.71994 -142.226895 -0.988085 117.059192 176.146237 -62.749579 108.239573 -36.036059 51.723116 29.832321 29.253729 -67.067349 5.670269 -0.02132 -1.726872 -0.542923 0.160854 -0.240524 0.292931 -156.381711 53.734251 -150.117957 -9.258081 -23.028565 -13.598832 142.973735 39.431617 -147.390037 -21.134597 1.346882 -7.282557 -110.589511 72.454231 132.243923 164.927581 47.691672 -138.540332 -116.309427 -50.010152 -56.954107 136.18189 22.838273 -90.955553 151.353117 -17.158427 -121.133109 90.683977 54.992748 -81.446586 89.835461 60.702148 -81.262754 172.400861 -39.012005 -147.101504 145.099691 -1.522044 178.64987 146.379261 25.396149 -177.563519 156.381711 53.734251 150.117957 -4.221651 2.356283 2.695703 0.0 -0.0 -0.0 -0.0 0.0 -0.0 7.051593 4.103085 76.605942 -82.15108 66.997553 9.765586 0.0 -0.0 -0.0 -0.0 0.0 -0.0 -7.051593 4.103085 -76.605942 4.711345 -1.574469 78.901466
250.042 59.8649 104.567 -0.0 0.0 -0.0 0.0 0.0 0.0 -0.0 -0.0 0.0 -7.608028 13.134247 -97.362004 12.070264 9.21646 97.262646 0.0 -0.0 -0.0 0.0 -0.0 -0.0 3.268835 -26.755826 -5.241683 -176.404973 -5.170647 173.257165 126.254136 68.4528 -139.970266 -125.492143 71.628932 104.45188 -121.36458 30.329582 71.957921 -29.108542 -16.191968 29.355054 5.921393 -10.174578 -2.968574 1.415669 -0.153463 1.886285 -175.932641 -50.680399 144.035247 14.437381 -24.285055 1.182843 -0.000142 -0.018533 -0.005823 -158.987762 43.40689 163.329398 -146.226238 15.470244 -142.747894 4.159797 -1.439527 -2.537489 150.168677 21.535282 -155.275413 -20.617878 1.866533 -11.401519 -176.535262 7.308677 -179.020819 11.806161 34.163582 -2.426498 178.927535 -16.453687 -89.421826 -179.573378 -16.837063 -98.714388 26.599783 30.073055 -19.414608 176.11216 -20.767299 -116.88852 8.41658 20.880424 -5.645309 165.655707 -3.256769 -144.341676 73.163647 -72.142466 90.198134 -21.395144 -43.153131 -2.677088 -1.134951 3.04054 -1.043633 -12.877282 44.400196 -8.544475 0.0 -0.0 -0.0 -0.0 0.0 -0.0 7.051593 4.103085 76.605942 -82.15108 66.997553 9.765586 0.0 -0.0 -0.0 -0.0 0.0 -0.0 -7.051593 4.103085 -76.605942 4.711345 -1.574469 78.901466
248.724 60.4619 104.166 0.0 -0.0 -0.0 -0.0 -4.771896 -180.0 0.0 -4.771896 -180.0 2.348711 19.742543 -170.817555 5.72704 19.065302 169.446286 -0.0 -0.0 0.0 -0.0 -0.0 0.0 4.239307 -44.742767 -8.647656 -137.003075 70.591925 135.368995 -23.954123 75.013781 -5.940452 159.523681 -41.024955 137.501832 93.028426 -51.083891 40.500925 -146.62093 7.133246 108.869822 -152.812211 -19.873325 121.572634 172.488645 -62.205698 101.301232 173.123457 -66.297779 137.614274 -14.449685 35.719771 14.329893 -145.121954 1.975391 -179.748922 16.858718 -26.775566 -13.666758 -126.797849 -26.619602 -124.512652 -156.561494 54.394904 -150.188715 69.036064 -86.842755 90.938406 127.513018 61.464675 -128.256741 -175.322993 15.477588 -147.712452 -177.54867 4.706877 -145.334296 171.706035 -9.388422 -89.948992 -113.184637 -62.653001 -83.715165 77.667448 43.02965 -64.538509 158.194585 5.394197 -121.848599 36.036059 51.723116 -29.832321 168.288284 -18.510314 -146.971167 145.099691 -1.522044 178.64987 -22.325294 34.887734 4.704153 79.554196 -51.374964 77.988404 144.911209 7.131385 144.042868 -180.0 75.749642 -0.0 180.0 73.473292 180.0 -7.166984 -6.598021 -101.486098 -129.222078 -68.60188 131.057368 -180.0 75.749642 -0.0 180.0 73.473292 180.0 -5.638705 -8.036763 -104.874848 4.47307 -38.993043 -85.887691
